<svg xmlns="http://www.w3.org/2000/svg" version="1.1" xmlns:xlink="http://www.w3.org/1999/xlink" width="512" height="512" x="0" y="0" viewBox="0 0 24 24" style="enable-background:new 0 0 512 512" xml:space="preserve" class=""><g><path d="M3.836 15.841A8.36 8.36 0 0 0 6.06 17.26l4.244-2.665a2.263 2.263 0 0 1 2.789.316l1.427 1.427C16.659 14.761 18 12.238 18 9.5 18 4.813 14.187 1 9.5 1S1 4.813 1 9.5a8.51 8.51 0 0 0 2.836 6.341zM9.88 10.25h-.76a2.122 2.122 0 0 1-.37-4.212V5.25a.75.75 0 0 1 1.5 0V6h1a.75.75 0 0 1 0 1.5H9.12a.62.62 0 0 0-.62.62c0 .352.278.63.62.63h.76a2.122 2.122 0 0 1 .37 4.212v.787a.75.75 0 0 1-1.5 0V13h-1a.75.75 0 0 1 0-1.5h2.13a.62.62 0 0 0 .62-.62.623.623 0 0 0-.62-.63z" fill="#ffffff" opacity="1" data-original="#000000" class=""></path><path d="M23 12h-4a1 1 0 0 0-.707 1.707L19.586 15 15.5 19.086l-3.293-3.293a1 1 0 0 0-1.233-.143l-10.5 6.5a1 1 0 0 0 1.052 1.7l9.826-6.083 3.44 3.44a.999.999 0 0 0 1.414 0L21 16.414l1.293 1.293A1 1 0 0 0 24 17v-4a1 1 0 0 0-1-1z" fill="#ffffff" opacity="1" data-original="#000000" class=""></path></g></svg>