<svg xmlns="http://www.w3.org/2000/svg" version="1.1" xmlns:xlink="http://www.w3.org/1999/xlink" width="512" height="512" x="0" y="0" viewBox="0 0 32 32" style="enable-background:new 0 0 512 512" xml:space="preserve" class=""><g><path d="M28.893 20.747a3.978 3.978 0 0 0-2.698-6.727 5.972 5.972 0 0 0-2.309-2.264 4 4 0 1 0-5.772 0A5.974 5.974 0 0 0 16 13.702a5.974 5.974 0 0 0-2.114-1.946 4 4 0 1 0-5.772 0 5.972 5.972 0 0 0-2.31 2.264 3.978 3.978 0 0 0-2.697 6.727A6.003 6.003 0 0 0 0 26a1 1 0 0 0 1 1h30a1 1 0 0 0 1-1 6.003 6.003 0 0 0-3.107-5.253ZM28 18a2 2 0 1 1-2-2 2.002 2.002 0 0 1 2 2Zm-7 4.69a6.043 6.043 0 0 0-2.107-1.944 3.963 3.963 0 0 0-1.005-6.251 3.987 3.987 0 0 1 6.224 0 3.963 3.963 0 0 0-1.005 6.252A6.043 6.043 0 0 0 21 22.69Zm-10 0a6.043 6.043 0 0 0-2.107-1.944 3.963 3.963 0 0 0-1.005-6.251 3.987 3.987 0 0 1 6.224 0 3.963 3.963 0 0 0-1.005 6.252A6.043 6.043 0 0 0 11 22.69ZM14 18a2 2 0 1 1 2 2 2.002 2.002 0 0 1-2-2Zm5-9a2 2 0 1 1 2 2 2.002 2.002 0 0 1-2-2ZM9 9a2 2 0 1 1 2 2 2.002 2.002 0 0 1-2-2Zm-5 9a2 2 0 1 1 2 2 2.002 2.002 0 0 1-2-2Zm-1.873 7a4 4 0 0 1 7.747 0Zm10 0a4 4 0 0 1 7.746 0Zm10 0a4 4 0 0 1 7.747 0Z" fill="#ffffff" opacity="1" data-original="#000000" class=""></path></g></svg>