<svg xmlns="http://www.w3.org/2000/svg" version="1.1" xmlns:xlink="http://www.w3.org/1999/xlink" width="512" height="512" x="0" y="0" viewBox="0 0 512 512" style="enable-background:new 0 0 512 512" xml:space="preserve" class=""><g><path d="M403.858 27.346H108.142C48.512 27.346 0 75.858 0 135.488v138.286c0 25.593 9.156 50.436 25.781 69.951 14.348 16.841 33.493 28.887 54.642 34.54l-24.101 95.568a8.692 8.692 0 0 0 8.431 10.82 8.674 8.674 0 0 0 4.584-1.308l163.428-101.431h171.092c59.63 0 108.142-48.512 108.142-108.142V135.488C512 75.858 463.488 27.346 403.858 27.346zm90.753 246.428c0 50.042-40.712 90.753-90.754 90.753H230.741c-.039 0-.077.005-.117.006a8.654 8.654 0 0 0-4.922 1.302l-147.26 91.396 20.65-81.883c.018-.073.027-.146.044-.219a8.69 8.69 0 0 0 .568-1.898 8.696 8.696 0 0 0-7.069-10.061c-43.6-7.616-75.245-45.212-75.245-89.395V135.488c0-50.042 40.711-90.754 90.753-90.754h295.716c50.042 0 90.754 40.712 90.754 90.754v138.286zm-355.904-79.491c-14.067-3.374-26.216-6.288-26.216-17.125 0-11.905 13.354-16.146 25.851-16.146 8.257 0 16.314 1.344 23.991 4.012 1.173.47 2.078.689 2.849.689 4.45 0 7.205-3.898 7.205-7.509 0-3.502-1.722-5.967-4.99-7.133-9.089-3.368-19.374-5.075-30.57-5.075-27.918 0-40.414 16.185-40.414 32.225 0 21.892 21.709 27.45 39.154 31.917 13.571 3.474 25.291 6.475 25.291 15.393 0 4.031 0 16.298-25.396 16.298-10.381 0-20.284-2.062-29.423-6.125-1.113-.476-2.171-.699-3.33-.699-4.125 0-7.357 3.298-7.357 7.508 0 3.016 2.111 6.134 4.934 7.264 11.348 4.892 23.642 7.372 36.541 7.372 23.527 0 39.958-12.628 39.958-30.709 0-23.022-21.113-28.087-38.078-32.157zm165.365-47.531h-5.004c-4.399 0-8.543 2.852-10.308 7.084l-33.364 83.187-33.369-83.201c-1.763-4.229-5.902-7.07-10.302-7.07h-5.004c-6.064 0-10.997 5.001-10.997 11.148v90.526c0 4.391 3.573 7.963 7.964 7.963 4.475 0 8.115-3.572 8.115-7.963v-75.309l1.862-.362 30.983 76.585c1.915 4.348 6.033 7.049 10.748 7.049 4.717 0 8.845-2.723 10.762-7.08l30.969-76.554 1.862.362v75.309c0 4.391 3.64 7.963 8.115 7.963 4.391 0 7.964-3.572 7.964-7.963V157.9c-.001-6.147-4.933-11.148-10.996-11.148zm74.498 47.531c-14.067-3.375-26.216-6.288-26.216-17.125 0-11.905 13.354-16.146 25.851-16.146 8.257 0 16.314 1.344 23.991 4.012 1.173.47 2.078.689 2.849.689 4.45 0 7.205-3.898 7.205-7.509 0-3.502-1.722-5.967-4.99-7.133-9.089-3.368-19.374-5.075-30.571-5.075-27.917 0-40.414 16.185-40.414 32.225 0 21.893 21.709 27.451 39.154 31.917 13.571 3.474 25.291 6.475 25.291 15.393 0 4.031 0 16.298-25.396 16.298-10.381 0-20.284-2.062-29.424-6.125-1.113-.477-2.171-.699-3.33-.699-4.125 0-7.357 3.298-7.357 7.508 0 3.016 2.111 6.134 4.934 7.264 11.348 4.892 23.642 7.372 36.541 7.372 23.527 0 39.958-12.628 39.958-30.709.002-23.022-21.111-28.087-38.076-32.157z" fill="#ffffff" opacity="1" data-original="#000000" class=""></path></g></svg>